<svg width="248" height="46" viewBox="0 0 248 46" fill="none" xmlns="http://www.w3.org/2000/svg">
<g filter="url(#filter0_ddd_386_2812)">
<rect x="5" y="4" width="238" height="36" rx="4" fill="#007DFF"/>
<path d="M104.756 25.306H116.488V26.818H104.756V25.306ZM109.67 22.856H111.532V25.922H109.67V22.856ZM106.072 16.122H115.172V20.434H107.948V22.618H106.1V18.978H113.324V17.592H106.072V16.122ZM106.1 21.876H115.466V23.374H106.1V21.876ZM119.325 16.472H127.543V17.942H119.325V16.472ZM118.135 25.04H129.853V26.552H118.135V25.04ZM126.563 16.472H128.411V18.012C128.411 19.832 128.411 21.596 127.949 24.256L126.087 24.102C126.563 21.61 126.563 19.762 126.563 18.012V16.472ZM140.403 15.296H142.279V24.606H140.403V15.296ZM133.641 26.538H142.601V28.022H133.641V26.538ZM133.641 23.668H135.503V27.14H133.641V23.668ZM135.223 16.108C137.211 16.108 138.737 17.48 138.737 19.398C138.737 21.302 137.211 22.688 135.223 22.688C133.235 22.688 131.695 21.302 131.695 19.398C131.695 17.48 133.235 16.108 135.223 16.108ZM135.223 17.718C134.257 17.718 133.515 18.334 133.515 19.398C133.515 20.448 134.257 21.064 135.223 21.064C136.175 21.064 136.917 20.448 136.917 19.398C136.917 18.334 136.175 17.718 135.223 17.718Z" fill="white"/>
</g>
<defs>
<filter id="filter0_ddd_386_2812" x="0" y="0" width="248" height="46" filterUnits="userSpaceOnUse" color-interpolation-filters="sRGB">
<feFlood flood-opacity="0" result="BackgroundImageFix"/>
<feColorMatrix in="SourceAlpha" type="matrix" values="0 0 0 0 0 0 0 0 0 0 0 0 0 0 0 0 0 0 127 0" result="hardAlpha"/>
<feOffset dy="1"/>
<feGaussianBlur stdDeviation="2.5"/>
<feColorMatrix type="matrix" values="0 0 0 0 0 0 0 0 0 0 0 0 0 0 0 0 0 0 0.12 0"/>
<feBlend mode="normal" in2="BackgroundImageFix" result="effect1_dropShadow_386_2812"/>
<feColorMatrix in="SourceAlpha" type="matrix" values="0 0 0 0 0 0 0 0 0 0 0 0 0 0 0 0 0 0 127 0" result="hardAlpha"/>
<feOffset dy="2"/>
<feGaussianBlur stdDeviation="1.5"/>
<feColorMatrix type="matrix" values="0 0 0 0 0 0 0 0 0 0 0 0 0 0 0 0 0 0 0.14 0"/>
<feBlend mode="normal" in2="effect1_dropShadow_386_2812" result="effect2_dropShadow_386_2812"/>
<feColorMatrix in="SourceAlpha" type="matrix" values="0 0 0 0 0 0 0 0 0 0 0 0 0 0 0 0 0 0 127 0" result="hardAlpha"/>
<feMorphology radius="2" operator="erode" in="SourceAlpha" result="effect3_dropShadow_386_2812"/>
<feOffset dy="3"/>
<feGaussianBlur stdDeviation="2.5"/>
<feColorMatrix type="matrix" values="0 0 0 0 0 0 0 0 0 0 0 0 0 0 0 0 0 0 0.2 0"/>
<feBlend mode="normal" in2="effect2_dropShadow_386_2812" result="effect3_dropShadow_386_2812"/>
<feBlend mode="normal" in="SourceGraphic" in2="effect3_dropShadow_386_2812" result="shape"/>
</filter>
</defs>
</svg>
